{
  "accessors": [
    {
      "bufferView": 2,
      "componentType": 5126,
      "count": 65534,
      "max": [
        0.13781389594078064,
        0.29295331239700317,
        0.16499637067317963
      ],
      "min": [
        -0.11936214566230774,
        -0.27757230401039124,
        -0.1147785484790802
      ],
      "type": "VEC3"
    },
    {
      "bufferView": 2,
      "byteOffset": 786408,
      "componentType": 5126,
      "count": 65534,
      "max": [
        0.99996918439865112,
        0.99987524747848511,
        0.99998766183853149
      ],
      "min": [
        -0.99999099969863892,
        -0.99992287158966064,
        -0.99996042251586914
      ],
      "type": "VEC3"
    },
    {
      "bufferView": 1,
      "componentType": 5126,
      "count": 65534,
      "max": [
        0.98642921447753906,
        0.99998617172241211
      ],
      "min": [
        0,
        0
      ],
      "type": "VEC2"
    },
    {
      "bufferView": 0,
      "componentType": 5125,
      "count": 368670,
      "max": [
        65533
      ],
      "min": [
        0
      ],
      "type": "SCALAR"
    },
    {
      "bufferView": 2,
      "byteOffset": 1572816,
      "componentType": 5126,
      "count": 3387,
      "max": [
        0.11411941051483154,
        0.15278053283691406,
        0.10112863034009933
      ],
      "min": [
        -0.086556293070316315,
        -0.27224645018577576,
        -0.10124853253364563
      ],
      "type": "VEC3"
    },
    {
      "bufferView": 2,
      "byteOffset": 1613460,
      "componentType": 5126,
      "count": 3387,
      "max": [
        0.99965935945510864,
        0.99772197008132935,
        0.99996340274810791
      ],
      "min": [
        -0.99964773654937744,
        -0.98819863796234131,
        -0.99668663740158081
      ],
      "type": "VEC3"
    },
    {
      "bufferView": 1,
      "byteOffset": 524272,
      "componentType": 5126,
      "count": 3387,
      "max": [
        0.90863656997680664,
        0.99968481063842773
      ],
      "min": [
        0.02337915450334549,
        0.169600710272789
      ],
      "type": "VEC2"
    },
    {
      "bufferView": 0,
      "byteOffset": 1474680,
      "componentType": 5125,
      "count": 7539,
      "max": [
        3386
      ],
      "min": [
        0
      ],
      "type": "SCALAR"
    }
  ],
  "asset": {
    "extras": {
      "author": "annasveins (https://sketchfab.com/annasveins)",
      "license": "CC-BY-4.0 (http://creativecommons.org/licenses/by/4.0/)",
      "source": "https://sketchfab.com/3d-models/geirfugl-great-auk-83d49d319c6640638a6ceaee29b1ebc5",
      "title": "Geirfugl – Great Auk"
    },
    "generator": "Sketchfab-10.10.1-rc1",
    "version": "2.0"
  },
  "bufferViews": [
    {
      "buffer": 0,
      "byteLength": 1504836,
      "byteOffset": 0,
      "name": "floatBufferViews",
      "target": 34963
    },
    {
      "buffer": 0,
      "byteLength": 551368,
      "byteOffset": 1504836,
      "byteStride": 8,
      "name": "floatBufferViews",
      "target": 34962
    },
    {
      "buffer": 0,
      "byteLength": 1654104,
      "byteOffset": 2056204,
      "byteStride": 12,
      "name": "floatBufferViews",
      "target": 34962
    }
  ],
  "buffers": [
    {
      "byteLength": 3710308,
      "uri": "scene.bin"
    }
  ],
  "extensionsRequired": [
    "KHR_materials_pbrSpecularGlossiness"
  ],
  "extensionsUsed": [
    "KHR_materials_pbrSpecularGlossiness"
  ],
  "images": [
    {
      "uri": "textures/material0_diffuse.jpeg"
    }
  ],
  "materials": [
    {
      "doubleSided": true,
      "extensions": {
        "KHR_materials_pbrSpecularGlossiness": {
          "diffuseFactor": [
            1,
            1,
            1,
            1
          ],
          "diffuseTexture": {
            "index": 0,
            "texCoord": 0
          },
          "glossinessFactor": 1,
          "specularFactor": [
            0,
            0,
            0
          ]
        }
      },
      "name": "material0"
    }
  ],
  "meshes": [
    {
      "name": "Model_material0_0",
      "primitives": [
        {
          "attributes": {
            "NORMAL": 1,
            "POSITION": 0,
            "TEXCOORD_0": 2
          },
          "indices": 3,
          "material": 0,
          "mode": 4
        }
      ]
    },
    {
      "name": "Model_material0_0",
      "primitives": [
        {
          "attributes": {
            "NORMAL": 5,
            "POSITION": 4,
            "TEXCOORD_0": 6
          },
          "indices": 7,
          "material": 0,
          "mode": 4
        }
      ]
    }
  ],
  "nodes": [
    {
      "children": [
        1
      ],
      "name": "RootNode (gltf orientation matrix)",
      "rotation": [
        -0.70710678118654746,
        -0,
        -0,
        0.70710678118654757
      ]
    },
    {
      "children": [
        2
      ],
      "matrix": [
        -0.19622354479539084,
        1.3329607300225774,
        -0.085832257623133401,
        0,
        -0.18765668053415574,
        0.058382409543558555,
        1.3356765018159606,
        0,
        1.3224735972719515,
        0.2060639425937687,
        0.17679469981895224,
        0,
        0.034093346446752548,
        -0.012635174207389355,
        -0.013624781742691994,
        1
      ],
      "name": "RootNode (model correction matrix)"
    },
    {
      "children": [
        3
      ],
      "matrix": [
        1,
        0,
        0,
        0,
        0,
        -1,
        0,
        0,
        0,
        0,
        -1,
        0,
        0,
        0,
        0,
        1
      ],
      "name": "model.fbx"
    },
    {
      "children": [
        4
      ],
      "name": "RootNode"
    },
    {
      "children": [
        5,
        6
      ],
      "name": "Model"
    },
    {
      "mesh": 0,
      "name": "Model_material0_0"
    },
    {
      "mesh": 1,
      "name": "Model_material0_0"
    }
  ],
  "samplers": [
    {
      "magFilter": 9729,
      "minFilter": 9987,
      "wrapS": 10497,
      "wrapT": 10497
    }
  ],
  "scene": 0,
  "scenes": [
    {
      "name": "OSG_Scene",
      "nodes": [
        0
      ]
    }
  ],
  "textures": [
    {
      "sampler": 0,
      "source": 0
    }
  ]
}

