{
  "accessors": [
    {
      "bufferView": 2,
      "componentType": 5126,
      "count": 65532,
      "max": [
        56.08292770385742,
        268.60260009765625,
        37.645240783691406
      ],
      "min": [
        -110.08416748046875,
        -40.44807434082031,
        -379.9909362792969
      ],
      "type": "VEC3"
    },
    {
      "bufferView": 2,
      "byteOffset": 786384,
      "componentType": 5126,
      "count": 65532,
      "max": [
        1.0,
        0.9999791383743286,
        0.9999923706054688
      ],
      "min": [
        -0.9999895095825195,
        -0.9999843239784241,
        -1.0
      ],
      "type": "VEC3"
    },
    {
      "bufferView": 1,
      "componentType": 5126,
      "count": 65532,
      "max": [
        0.9984869956970215,
        0.9992560148239136
      ],
      "min": [
        0.0007440000190399587,
        0.0007619999814778566
      ],
      "type": "VEC2"
    },
    {
      "bufferView": 0,
      "componentType": 5125,
      "count": 279225,
      "type": "SCALAR"
    },
    {
      "bufferView": 2,
      "byteOffset": 1572768,
      "componentType": 5126,
      "count": 65149,
      "max": [
        53.16509246826172,
        269.63800048828125,
        40.1140251159668
      ],
      "min": [
        -102.10120391845703,
        -40.24537658691406,
        -379.9909362792969
      ],
      "type": "VEC3"
    },
    {
      "bufferView": 2,
      "byteOffset": 2354556,
      "componentType": 5126,
      "count": 65149,
      "max": [
        1.0,
        0.9999241232872009,
        0.9999419450759888
      ],
      "min": [
        -0.9999983310699463,
        -0.9999986290931702,
        -0.9999999403953552
      ],
      "type": "VEC3"
    },
    {
      "bufferView": 1,
      "byteOffset": 524256,
      "componentType": 5126,
      "count": 65149,
      "max": [
        0.9937459826469421,
        0.9992560148239136
      ],
      "min": [
        0.0007440000190399587,
        0.004612000193446875
      ],
      "type": "VEC2"
    },
    {
      "bufferView": 0,
      "byteOffset": 1116900,
      "componentType": 5125,
      "count": 320763,
      "type": "SCALAR"
    }
  ],
  "asset": {
    "extras": {
      "author": "Natural History Museum Vienna (https://sketchfab.com/NHMWien)",
      "license": "CC-BY-NC-4.0 (http://creativecommons.org/licenses/by-nc/4.0/)",
      "source": "https://sketchfab.com/3d-models/cuban-macaw-nhmw-zoo-vs-50796-52348a29605a4136a0e807942d3c12a6",
      "title": "Cuban Macaw (NHMW-Zoo-VS 50.796)"
    },
    "generator": "Sketchfab-11.72.0",
    "version": "2.0"
  },
  "bufferViews": [
    {
      "buffer": 0,
      "byteLength": 2399952,
      "name": "floatBufferViews",
      "target": 34963
    },
    {
      "buffer": 0,
      "byteLength": 1045448,
      "byteOffset": 2399952,
      "byteStride": 8,
      "name": "floatBufferViews",
      "target": 34962
    },
    {
      "buffer": 0,
      "byteLength": 3136344,
      "byteOffset": 3445400,
      "byteStride": 12,
      "name": "floatBufferViews",
      "target": 34962
    }
  ],
  "buffers": [
    {
      "byteLength": 6581744,
      "uri": "scene.bin"
    }
  ],
  "extensionsRequired": [
    "KHR_materials_pbrSpecularGlossiness"
  ],
  "extensionsUsed": [
    "KHR_materials_pbrSpecularGlossiness"
  ],
  "images": [
    {
      "uri": "textures/material_0_diffuse.png"
    }
  ],
  "materials": [
    {
      "doubleSided": true,
      "extensions": {
        "KHR_materials_pbrSpecularGlossiness": {
          "diffuseFactor": [
            1.0,
            1.0,
            1.0,
            1.0
          ],
          "diffuseTexture": {
            "index": 0
          },
          "glossinessFactor": 0.0,
          "specularFactor": [
            0.0,
            0.0,
            0.0
          ]
        }
      },
      "name": "material_0"
    }
  ],
  "meshes": [
    {
      "name": "Object_0",
      "primitives": [
        {
          "attributes": {
            "NORMAL": 1,
            "POSITION": 0,
            "TEXCOORD_0": 2
          },
          "indices": 3,
          "material": 0,
          "mode": 4
        }
      ]
    },
    {
      "name": "Object_1",
      "primitives": [
        {
          "attributes": {
            "NORMAL": 5,
            "POSITION": 4,
            "TEXCOORD_0": 6
          },
          "indices": 7,
          "material": 0,
          "mode": 4
        }
      ]
    }
  ],
  "nodes": [
    {
      "children": [
        1
      ],
      "matrix": [
        0.0019912086478915403,
        0.00017855139924783346,
        -5.6637688436100194e-05,
        0.0,
        1.4404749483468187e-06,
        -0.0006192966397703874,
        -0.0019017018983017583,
        0.0,
        -0.0001873135208645734,
        0.0018933016961052848,
        -0.0006167030031344399,
        0.0,
        -16.117076873779297,
        28.828531265258803,
        -58.797534942626946,
        1.0
      ],
      "name": "Sketchfab_model"
    },
    {
      "children": [
        2,
        3
      ],
      "name": "NHMW-Zoo1-Vofgel-50796-Ara tricolor_low res.obj.cleaner.materialmerger.gles"
    },
    {
      "mesh": 0,
      "name": "Object_2"
    },
    {
      "mesh": 1,
      "name": "Object_3"
    }
  ],
  "samplers": [
    {
      "magFilter": 9729,
      "minFilter": 9987,
      "wrapS": 10497,
      "wrapT": 10497
    }
  ],
  "scene": 0,
  "scenes": [
    {
      "name": "Sketchfab_Scene",
      "nodes": [
        0
      ]
    }
  ],
  "textures": [
    {
      "sampler": 0,
      "source": 0
    }
  ]
}
