{
  "accessors": [
    {
      "bufferView": 2,
      "componentType": 5126,
      "count": 65532,
      "max": [
        88.71954345703125,
        116.67054748535156,
        132.6107177734375
      ],
      "min": [
        -131.18435668945313,
        -92.19967651367188,
        -178.86337280273438
      ],
      "type": "VEC3"
    },
    {
      "bufferView": 2,
      "byteOffset": 786384,
      "componentType": 5126,
      "count": 65532,
      "max": [
        1.0,
        0.9999986290931702,
        0.9999944567680359
      ],
      "min": [
        -1.0,
        -1.0,
        -1.0
      ],
      "type": "VEC3"
    },
    {
      "bufferView": 1,
      "componentType": 5126,
      "count": 65532,
      "max": [
        0.9971759915351868,
        0.9992560148239136
      ],
      "min": [
        0.0007440000190399587,
        0.0007440000190399587
      ],
      "type": "VEC2"
    },
    {
      "bufferView": 0,
      "componentType": 5125,
      "count": 265893,
      "type": "SCALAR"
    },
    {
      "bufferView": 2,
      "byteOffset": 1572768,
      "componentType": 5126,
      "count": 65532,
      "max": [
        84.3195571899414,
        115.67927551269531,
        134.75390625
      ],
      "min": [
        -131.02821350097656,
        -104.55514526367188,
        -170.8202667236328
      ],
      "type": "VEC3"
    },
    {
      "bufferView": 2,
      "byteOffset": 2359152,
      "componentType": 5126,
      "count": 65532,
      "max": [
        1.0,
        0.9999894499778748,
        1.0
      ],
      "min": [
        -1.0,
        -0.9999979734420776,
        -0.9999983906745911
      ],
      "type": "VEC3"
    },
    {
      "bufferView": 1,
      "byteOffset": 524256,
      "componentType": 5126,
      "count": 65532,
      "max": [
        0.9652680158615112,
        0.9992560148239136
      ],
      "min": [
        0.0007440000190399587,
        0.010049999691545963
      ],
      "type": "VEC2"
    },
    {
      "bufferView": 0,
      "byteOffset": 1063572,
      "componentType": 5125,
      "count": 326514,
      "type": "SCALAR"
    },
    {
      "bufferView": 2,
      "byteOffset": 3145536,
      "componentType": 5126,
      "count": 1905,
      "max": [
        31.976884841918945,
        80.23135375976563,
        -19.184032440185547
      ],
      "min": [
        -36.00751495361328,
        -49.82517623901367,
        -169.61334228515625
      ],
      "type": "VEC3"
    },
    {
      "bufferView": 2,
      "byteOffset": 3168396,
      "componentType": 5126,
      "count": 1905,
      "max": [
        0.9996080994606018,
        0.9996214509010315,
        0.9974947571754456
      ],
      "min": [
        -0.9998424053192139,
        -0.9956448674201965,
        -0.9999937415122986
      ],
      "type": "VEC3"
    },
    {
      "bufferView": 1,
      "byteOffset": 1048512,
      "componentType": 5126,
      "count": 1905,
      "max": [
        0.9134460091590881,
        0.29092299938201904
      ],
      "min": [
        0.4938009977340698,
        0.008710999973118305
      ],
      "type": "VEC2"
    },
    {
      "bufferView": 0,
      "byteOffset": 2369628,
      "componentType": 5125,
      "count": 7593,
      "type": "SCALAR"
    }
  ],
  "asset": {
    "extras": {
      "author": "Natural History Museum Vienna (https://sketchfab.com/NHMWien)",
      "license": "CC-BY-NC-4.0 (http://creativecommons.org/licenses/by-nc/4.0/)",
      "source": "https://sketchfab.com/3d-models/norfolk-kaka-nhmw-zoo-vs-50802-311c4a2c0b55467d8b9c2149cba8432a",
      "title": "Norfolk Kaka (NHMW-Zoo-VS 50.802)"
    },
    "generator": "Sketchfab-11.72.0",
    "version": "2.0"
  },
  "bufferViews": [
    {
      "buffer": 0,
      "byteLength": 2400000,
      "name": "floatBufferViews",
      "target": 34963
    },
    {
      "buffer": 0,
      "byteLength": 1063752,
      "byteOffset": 2400000,
      "byteStride": 8,
      "name": "floatBufferViews",
      "target": 34962
    },
    {
      "buffer": 0,
      "byteLength": 3191256,
      "byteOffset": 3463752,
      "byteStride": 12,
      "name": "floatBufferViews",
      "target": 34962
    }
  ],
  "buffers": [
    {
      "byteLength": 6655008,
      "uri": "scene.bin"
    }
  ],
  "extensionsRequired": [
    "KHR_materials_pbrSpecularGlossiness"
  ],
  "extensionsUsed": [
    "KHR_materials_pbrSpecularGlossiness"
  ],
  "images": [
    {
      "uri": "textures/material_0_diffuse.png"
    },
    {
      "uri": "textures/material_0_specularGlossiness.png"
    }
  ],
  "materials": [
    {
      "doubleSided": true,
      "extensions": {
        "KHR_materials_pbrSpecularGlossiness": {
          "diffuseFactor": [
            1.0,
            1.0,
            1.0,
            1.0
          ],
          "diffuseTexture": {
            "index": 0
          },
          "glossinessFactor": 0.0,
          "specularFactor": [
            0.013870395028850423,
            0.013870395028850423,
            0.013870395028850423
          ],
          "specularGlossinessTexture": {
            "index": 1
          }
        }
      },
      "name": "material_0"
    }
  ],
  "meshes": [
    {
      "name": "Object_0",
      "primitives": [
        {
          "attributes": {
            "NORMAL": 1,
            "POSITION": 0,
            "TEXCOORD_0": 2
          },
          "indices": 3,
          "material": 0,
          "mode": 4
        }
      ]
    },
    {
      "name": "Object_1",
      "primitives": [
        {
          "attributes": {
            "NORMAL": 5,
            "POSITION": 4,
            "TEXCOORD_0": 6
          },
          "indices": 7,
          "material": 0,
          "mode": 4
        }
      ]
    },
    {
      "name": "Object_2",
      "primitives": [
        {
          "attributes": {
            "NORMAL": 9,
            "POSITION": 8,
            "TEXCOORD_0": 10
          },
          "indices": 11,
          "material": 0,
          "mode": 4
        }
      ]
    }
  ],
  "nodes": [
    {
      "children": [
        1
      ],
      "matrix": [
        0.001982045983042885,
        0.00026525528498740764,
        -3.3670903851479245e-05,
        0.0,
        7.326513876814572e-06,
        -0.00030563713571754537,
        -0.0019764950022112954,
        0.0,
        -0.000267283392726865,
        0.0019586286283005544,
        -0.00030386511934652914,
        0.0,
        -3.1601624488830566,
        3.2854931354522714,
        -3.779407262802123,
        1.0
      ],
      "name": "Sketchfab_model"
    },
    {
      "children": [
        2,
        3,
        4
      ],
      "name": "NHMW-Zoo1-50802_Nestor productus_low res.obj.cleaner.materialmerger.gles"
    },
    {
      "mesh": 0,
      "name": "Object_2"
    },
    {
      "mesh": 1,
      "name": "Object_3"
    },
    {
      "mesh": 2,
      "name": "Object_4"
    }
  ],
  "samplers": [
    {
      "magFilter": 9729,
      "minFilter": 9987,
      "wrapS": 10497,
      "wrapT": 10497
    }
  ],
  "scene": 0,
  "scenes": [
    {
      "name": "Sketchfab_Scene",
      "nodes": [
        0
      ]
    }
  ],
  "textures": [
    {
      "sampler": 0,
      "source": 0
    },
    {
      "sampler": 0,
      "source": 1
    }
  ]
}
