{
  "accessors": [
    {
      "bufferView": 2,
      "componentType": 5126,
      "count": 65532,
      "max": [
        189.12582397460938,
        669.65966796875,
        394.59576416015625
      ],
      "min": [
        -294.6886291503906,
        371.06768798828125,
        -265.0562744140625
      ],
      "type": "VEC3"
    },
    {
      "bufferView": 2,
      "byteOffset": 786384,
      "componentType": 5126,
      "count": 65532,
      "max": [
        0.9999599456787109,
        0.9999937415122986,
        0.9999439120292664
      ],
      "min": [
        -0.9999949932098389,
        -0.9999998211860657,
        -0.999812662601471
      ],
      "type": "VEC3"
    },
    {
      "bufferView": 1,
      "componentType": 5126,
      "count": 65532,
      "max": [
        0.9981240034103394,
        0.9992560148239136
      ],
      "min": [
        0.0014880000380799174,
        0.0010100000072270632
      ],
      "type": "VEC2"
    },
    {
      "bufferView": 0,
      "componentType": 5125,
      "count": 354327,
      "type": "SCALAR"
    },
    {
      "bufferView": 2,
      "byteOffset": 1572768,
      "componentType": 5126,
      "count": 46394,
      "max": [
        188.3894500732422,
        669.8179931640625,
        385.386474609375
      ],
      "min": [
        -279.20794677734375,
        336.3947448730469,
        -277.9713134765625
      ],
      "type": "VEC3"
    },
    {
      "bufferView": 2,
      "byteOffset": 2129496,
      "componentType": 5126,
      "count": 46394,
      "max": [
        0.9999937415122986,
        0.9999950528144836,
        0.9999811053276062
      ],
      "min": [
        -0.9999993443489075,
        -0.9999921321868896,
        -0.9999964237213135
      ],
      "type": "VEC3"
    },
    {
      "bufferView": 1,
      "byteOffset": 524256,
      "componentType": 5126,
      "count": 46394,
      "max": [
        0.8214120268821716,
        0.9992560148239136
      ],
      "min": [
        0.0007440000190399587,
        0.14262999594211578
      ],
      "type": "VEC2"
    },
    {
      "bufferView": 0,
      "byteOffset": 1417308,
      "componentType": 5125,
      "count": 245673,
      "type": "SCALAR"
    }
  ],
  "asset": {
    "extras": {
      "author": "Natural History Museum Vienna (https://sketchfab.com/NHMWien)",
      "license": "CC-BY-NC-4.0 (http://creativecommons.org/licenses/by-nc/4.0/)",
      "source": "https://sketchfab.com/3d-models/tasmanian-tiger-nhmw-zoo-mamm-st132-9fdf2fa12d624f26a881f94ab104df01",
      "title": "Tasmanian Tiger (NHMW-Zoo-MAMM ST132)"
    },
    "generator": "Sketchfab-11.71.0",
    "version": "2.0"
  },
  "bufferViews": [
    {
      "buffer": 0,
      "byteLength": 2400000,
      "name": "floatBufferViews",
      "target": 34963
    },
    {
      "buffer": 0,
      "byteLength": 895408,
      "byteOffset": 2400000,
      "byteStride": 8,
      "name": "floatBufferViews",
      "target": 34962
    },
    {
      "buffer": 0,
      "byteLength": 2686224,
      "byteOffset": 3295408,
      "byteStride": 12,
      "name": "floatBufferViews",
      "target": 34962
    }
  ],
  "buffers": [
    {
      "byteLength": 5981632,
      "uri": "scene.bin"
    }
  ],
  "extensionsRequired": [
    "KHR_materials_pbrSpecularGlossiness"
  ],
  "extensionsUsed": [
    "KHR_materials_pbrSpecularGlossiness"
  ],
  "images": [
    {
      "uri": "textures/material_0_diffuse.png"
    }
  ],
  "materials": [
    {
      "doubleSided": true,
      "extensions": {
        "KHR_materials_pbrSpecularGlossiness": {
          "diffuseFactor": [
            1.0,
            1.0,
            1.0,
            1.0
          ],
          "diffuseTexture": {
            "index": 0
          },
          "glossinessFactor": 1.0,
          "specularFactor": [
            0.0,
            0.0,
            0.0
          ]
        }
      },
      "name": "material_0"
    }
  ],
  "meshes": [
    {
      "name": "Object_0",
      "primitives": [
        {
          "attributes": {
            "NORMAL": 1,
            "POSITION": 0,
            "TEXCOORD_0": 2
          },
          "indices": 3,
          "material": 0,
          "mode": 4
        }
      ]
    },
    {
      "name": "Object_1",
      "primitives": [
        {
          "attributes": {
            "NORMAL": 5,
            "POSITION": 4,
            "TEXCOORD_0": 6
          },
          "indices": 7,
          "material": 0,
          "mode": 4
        }
      ]
    }
  ],
  "nodes": [
    {
      "children": [
        1
      ],
      "matrix": [
        0.0011464291237568702,
        5.8850932812539946e-05,
        -4.979304664450358e-05,
        0.0,
        6.129921654119026e-05,
        -0.0011459694402650433,
        5.6912370753787764e-05,
        0.0,
        -4.674596986464687e-05,
        -5.944055719159644e-05,
        -0.0011465269914132797,
        0.0,
        -17.07175064086914,
        586.5358886718751,
        -470.242950439453,
        1.0
      ],
      "name": "Sketchfab_model"
    },
    {
      "children": [
        2,
        3
      ],
      "name": "NHMW-NMW-ST132_Beutelwolf_low res.obj.cleaner.materialmerger.gles"
    },
    {
      "mesh": 0,
      "name": "Object_2"
    },
    {
      "mesh": 1,
      "name": "Object_3"
    }
  ],
  "samplers": [
    {
      "magFilter": 9729,
      "minFilter": 9987,
      "wrapS": 10497,
      "wrapT": 10497
    }
  ],
  "scene": 0,
  "scenes": [
    {
      "name": "Sketchfab_Scene",
      "nodes": [
        0
      ]
    }
  ],
  "textures": [
    {
      "sampler": 0,
      "source": 0
    }
  ]
}
